<?xml version="1.0" standalone="no"?>
<!DOCTYPE svg PUBLIC "-//W3C//DTD SVG 20010904//EN"
 "http://www.w3.org/TR/2001/REC-SVG-20010904/DTD/svg10.dtd">
<svg version="1.0" xmlns="http://www.w3.org/2000/svg"
 width="350.000000pt" height="350.000000pt" viewBox="0 0 350.000000 350.000000"
 preserveAspectRatio="xMidYMid meet">

<g transform="translate(0.000000,350.000000) scale(0.100000,-0.100000)"
fill="#000000" stroke="none">
<path d="M1615 2540 c-3 -5 -19 -10 -34 -10 -32 0 -149 -59 -193 -98 -63 -55
-96 -96 -114 -138 -7 -18 -18 -35 -24 -39 -5 -3 -10 -19 -10 -35 0 -16 -4 -32
-10 -35 -6 -4 -10 -107 -10 -276 0 -298 0 -299 -61 -299 -26 0 -42 -10 -76
-46 -43 -45 -43 -45 -43 -120 0 -142 29 -164 218 -164 130 0 152 -6 152 -40 0
-56 87 -167 157 -199 15 -7 36 -17 45 -22 26 -13 147 -11 188 4 20 6 48 20 63
30 14 9 29 17 32 17 20 0 93 110 109 163 l12 42 129 3 c79 1 140 7 155 15 34
17 70 53 70 71 0 8 5 18 10 21 33 21 -10 192 -52 203 -10 2 -18 8 -18 13 0 5
-17 9 -37 9 -74 1 -73 -1 -73 258 0 214 -6 285 -30 347 -26 66 -36 85 -42 85
-5 0 -8 7 -8 16 0 10 -30 46 -66 81 -70 68 -185 133 -235 133 -15 0 -31 5 -34
10 -3 6 -42 10 -85 10 -43 0 -82 -4 -85 -10z m167 -93 c26 -7 50 -16 54 -20 4
-4 14 -7 21 -7 33 0 146 -90 180 -143 51 -80 63 -109 63 -147 0 -22 5 -40 10
-40 6 0 10 -91 10 -252 1 -183 4 -257 13 -269 18 -24 52 -39 88 -39 48 0 69
-24 69 -81 0 -84 40 -79 -575 -79 -329 0 -554 4 -569 10 -23 8 -26 15 -26 61
0 62 19 89 62 89 46 0 93 31 117 77 7 15 11 110 11 292 0 169 4 272 10 276 6
3 10 14 10 25 0 31 57 128 95 161 44 39 120 79 149 79 12 0 28 5 36 10 21 13
115 12 172 -3z m92 -1173 c10 -4 16 -18 16 -38 0 -38 -45 -92 -103 -125 -40
-22 -131 -29 -142 -11 -3 6 -15 10 -26 10 -10 0 -19 5 -19 10 0 6 -6 10 -13
10 -19 0 -74 60 -87 94 -20 55 -17 56 179 56 99 0 186 -3 195 -6z"/>
</g>
</svg>
