<?xml version="1.0" standalone="no"?>
<!DOCTYPE svg PUBLIC "-//W3C//DTD SVG 20010904//EN"
 "http://www.w3.org/TR/2001/REC-SVG-20010904/DTD/svg10.dtd">
<svg version="1.0" xmlns="http://www.w3.org/2000/svg"
 width="350.000000pt" height="350.000000pt" viewBox="0 0 350.000000 350.000000"
 preserveAspectRatio="xMidYMid meet">

<g transform="translate(0.000000,350.000000) scale(0.100000,-0.100000)"
fill="#000000" stroke="none">
<path d="M1397 2629 l-368 -369 -264 0 -265 0 0 -580 0 -580 268 0 267 0 365
-365 c201 -201 368 -365 372 -365 10 0 10 2617 1 2623 -5 3 -174 -161 -376
-364z m153 -943 c0 -408 -3 -746 -7 -750 -4 -4 -97 83 -208 193 l-200 201
-200 2 -200 3 0 345 0 345 197 3 196 2 204 204 c111 112 206 202 211 199 4 -2
7 -338 7 -747z"/>
<path d="M2752 2714 c-76 -79 -77 -82 -36 -119 7 -5 36 -44 66 -85 185 -254
271 -513 272 -820 2 -279 -76 -543 -229 -775 -22 -33 -42 -62 -45 -65 -13 -12
-100 -119 -100 -122 0 -8 153 -158 161 -158 15 0 102 107 171 210 119 176 200
375 249 606 32 153 32 439 0 594 -31 152 -52 218 -113 357 -10 23 -18 44 -18
47 0 11 -117 205 -156 258 -64 87 -120 148 -135 148 -8 0 -47 -34 -87 -76z"/>
<path d="M2427 2389 l-78 -80 40 -48 c23 -27 41 -52 41 -57 0 -4 6 -15 14 -23
23 -25 93 -172 101 -211 4 -19 11 -40 16 -45 4 -6 14 -61 21 -123 28 -260 -34
-497 -180 -678 l-54 -67 81 -80 80 -81 31 29 c17 17 55 66 85 110 104 157 164
320 190 522 17 125 17 137 0 255 -26 184 -65 301 -146 444 -46 80 -145 214
-157 214 -4 -1 -42 -37 -85 -81z"/>
<path d="M2097 2059 c-71 -73 -77 -83 -64 -97 48 -55 97 -198 97 -284 0 -63
-40 -185 -79 -244 l-32 -47 78 -79 c42 -43 82 -78 88 -78 13 0 87 112 113 170
44 99 56 162 56 280 0 81 -5 134 -18 180 -17 59 -60 160 -79 185 -4 5 -21 29
-37 53 -17 23 -33 42 -38 41 -4 0 -42 -36 -85 -80z"/>
</g>
</svg>
